<mxfile host="app.diagrams.net" modified="2023-12-11T07:53:46.304Z" agent="Mozilla/5.0 (Windows NT 10.0; Win64; x64) AppleWebKit/537.36 (KHTML, like Gecko) Chrome/118.0.0.0 Safari/537.36 OPR/104.0.0.0" etag="HbpJLfxoxQ_tkRvfmu1c" version="22.1.7" type="device">
  <diagram name="1 oldal" id="80w6oadus03rzyrTUa70">
    <mxGraphModel dx="2158" dy="806" grid="1" gridSize="10" guides="1" tooltips="1" connect="1" arrows="1" fold="1" page="1" pageScale="1" pageWidth="827" pageHeight="1169" math="0" shadow="0">
      <root>
        <mxCell id="0" />
        <mxCell id="1" parent="0" />
        <mxCell id="JOiULctxTrwkrGutLJkI-7" value="Fesztivál_SYQ7E2" style="ellipse;whiteSpace=wrap;html=1;fontSize=15;" parent="1" vertex="1">
          <mxGeometry x="280" y="80" width="140" height="60" as="geometry" />
        </mxCell>
        <mxCell id="JOiULctxTrwkrGutLJkI-17" style="rounded=0;orthogonalLoop=1;jettySize=auto;html=1;exitX=0.5;exitY=0;exitDx=0;exitDy=0;entryX=0.5;entryY=1;entryDx=0;entryDy=0;endArrow=none;endFill=0;fontSize=15;" parent="1" source="JOiULctxTrwkrGutLJkI-80" target="JOiULctxTrwkrGutLJkI-7" edge="1">
          <mxGeometry relative="1" as="geometry">
            <mxPoint x="390" y="170" as="targetPoint" />
            <mxPoint x="-565" y="320" as="sourcePoint" />
          </mxGeometry>
        </mxCell>
        <mxCell id="JOiULctxTrwkrGutLJkI-18" style="rounded=0;orthogonalLoop=1;jettySize=auto;html=1;exitX=0.5;exitY=0;exitDx=0;exitDy=0;entryX=0.5;entryY=1;entryDx=0;entryDy=0;endArrow=none;endFill=0;fontSize=15;" parent="1" source="JOiULctxTrwkrGutLJkI-89" target="JOiULctxTrwkrGutLJkI-7" edge="1">
          <mxGeometry relative="1" as="geometry">
            <mxPoint x="1015" y="320" as="sourcePoint" />
          </mxGeometry>
        </mxCell>
        <mxCell id="JOiULctxTrwkrGutLJkI-19" style="rounded=0;orthogonalLoop=1;jettySize=auto;html=1;exitX=0.5;exitY=0;exitDx=0;exitDy=0;entryX=0.5;entryY=1;entryDx=0;entryDy=0;endArrow=none;endFill=0;fontSize=15;" parent="1" source="JOiULctxTrwkrGutLJkI-85" target="JOiULctxTrwkrGutLJkI-7" edge="1">
          <mxGeometry relative="1" as="geometry">
            <mxPoint x="600" y="320" as="sourcePoint" />
          </mxGeometry>
        </mxCell>
        <mxCell id="JOiULctxTrwkrGutLJkI-20" style="rounded=0;orthogonalLoop=1;jettySize=auto;html=1;exitX=0.5;exitY=0;exitDx=0;exitDy=0;entryX=0.5;entryY=1;entryDx=0;entryDy=0;endArrow=none;endFill=0;fontSize=15;" parent="1" source="JOiULctxTrwkrGutLJkI-84" target="JOiULctxTrwkrGutLJkI-7" edge="1">
          <mxGeometry relative="1" as="geometry">
            <mxPoint x="235" y="320" as="sourcePoint" />
          </mxGeometry>
        </mxCell>
        <mxCell id="JOiULctxTrwkrGutLJkI-56" style="rounded=0;orthogonalLoop=1;jettySize=auto;html=1;exitX=1;exitY=0.5;exitDx=0;exitDy=0;entryX=0;entryY=0.5;entryDx=0;entryDy=0;endArrow=none;endFill=0;" parent="1" source="JOiULctxTrwkrGutLJkI-84" target="JOiULctxTrwkrGutLJkI-55" edge="1">
          <mxGeometry relative="1" as="geometry">
            <mxPoint x="270" y="350" as="sourcePoint" />
          </mxGeometry>
        </mxCell>
        <mxCell id="JOiULctxTrwkrGutLJkI-21" style="rounded=0;orthogonalLoop=1;jettySize=auto;html=1;exitX=0.5;exitY=0;exitDx=0;exitDy=0;entryX=0.5;entryY=1;entryDx=0;entryDy=0;endArrow=none;endFill=0;fontSize=15;" parent="1" source="JOiULctxTrwkrGutLJkI-93" target="JOiULctxTrwkrGutLJkI-7" edge="1">
          <mxGeometry relative="1" as="geometry">
            <mxPoint x="1410" y="320" as="sourcePoint" />
          </mxGeometry>
        </mxCell>
        <mxCell id="JOiULctxTrwkrGutLJkI-16" style="rounded=0;orthogonalLoop=1;jettySize=auto;html=1;exitX=0.5;exitY=0;exitDx=0;exitDy=0;entryX=0.5;entryY=1;entryDx=0;entryDy=0;endArrow=none;endFill=0;fontSize=15;" parent="1" source="JOiULctxTrwkrGutLJkI-81" target="JOiULctxTrwkrGutLJkI-7" edge="1">
          <mxGeometry relative="1" as="geometry">
            <mxPoint x="-105" y="320" as="sourcePoint" />
          </mxGeometry>
        </mxCell>
        <mxCell id="JOiULctxTrwkrGutLJkI-22" style="rounded=0;orthogonalLoop=1;jettySize=auto;html=1;exitX=0.5;exitY=0;exitDx=0;exitDy=0;entryX=0.5;entryY=1;entryDx=0;entryDy=0;endArrow=none;endFill=0;fontSize=15;" parent="1" source="JOiULctxTrwkrGutLJkI-92" target="JOiULctxTrwkrGutLJkI-7" edge="1">
          <mxGeometry relative="1" as="geometry">
            <mxPoint x="1200" y="320" as="sourcePoint" />
          </mxGeometry>
        </mxCell>
        <mxCell id="JOiULctxTrwkrGutLJkI-24" style="rounded=0;orthogonalLoop=1;jettySize=auto;html=1;exitX=1;exitY=0.5;exitDx=0;exitDy=0;entryX=0;entryY=0.5;entryDx=0;entryDy=0;endArrow=none;endFill=0;fontSize=15;" parent="1" source="JOiULctxTrwkrGutLJkI-23" target="JOiULctxTrwkrGutLJkI-81" edge="1">
          <mxGeometry relative="1" as="geometry">
            <mxPoint x="-150.0000000000025" y="350" as="targetPoint" />
          </mxGeometry>
        </mxCell>
        <mxCell id="JOiULctxTrwkrGutLJkI-23" value="&lt;u style=&quot;font-size: 15px;&quot;&gt;FESZ_ID&lt;/u&gt;" style="rhombus;whiteSpace=wrap;html=1;fontSize=15;" parent="1" vertex="1">
          <mxGeometry x="-360" y="300" width="100" height="100" as="geometry" />
        </mxCell>
        <mxCell id="JOiULctxTrwkrGutLJkI-28" style="rounded=0;orthogonalLoop=1;jettySize=auto;html=1;exitX=0.5;exitY=0;exitDx=0;exitDy=0;endArrow=none;endFill=0;entryX=0.5;entryY=1;entryDx=0;entryDy=0;" parent="1" source="JOiULctxTrwkrGutLJkI-25" target="JOiULctxTrwkrGutLJkI-81" edge="1">
          <mxGeometry relative="1" as="geometry">
            <mxPoint x="-105" y="380" as="targetPoint" />
          </mxGeometry>
        </mxCell>
        <mxCell id="JOiULctxTrwkrGutLJkI-54" style="rounded=0;orthogonalLoop=1;jettySize=auto;html=1;exitX=0.5;exitY=1;exitDx=0;exitDy=0;entryX=0.5;entryY=0;entryDx=0;entryDy=0;endArrow=none;endFill=0;" parent="1" source="JOiULctxTrwkrGutLJkI-25" target="JOiULctxTrwkrGutLJkI-49" edge="1">
          <mxGeometry relative="1" as="geometry" />
        </mxCell>
        <mxCell id="JOiULctxTrwkrGutLJkI-25" value="név" style="ellipse;whiteSpace=wrap;html=1;fontSize=15;" parent="1" vertex="1">
          <mxGeometry x="-270" y="410" width="80" height="60" as="geometry" />
        </mxCell>
        <mxCell id="JOiULctxTrwkrGutLJkI-29" style="rounded=0;orthogonalLoop=1;jettySize=auto;html=1;exitX=0.5;exitY=0;exitDx=0;exitDy=0;endArrow=none;endFill=0;entryX=0.5;entryY=1;entryDx=0;entryDy=0;" parent="1" source="JOiULctxTrwkrGutLJkI-26" target="JOiULctxTrwkrGutLJkI-81" edge="1">
          <mxGeometry relative="1" as="geometry">
            <mxPoint x="-70" y="350" as="targetPoint" />
          </mxGeometry>
        </mxCell>
        <mxCell id="JOiULctxTrwkrGutLJkI-53" style="rounded=0;orthogonalLoop=1;jettySize=auto;html=1;exitX=0.5;exitY=1;exitDx=0;exitDy=0;entryX=0.5;entryY=0;entryDx=0;entryDy=0;endArrow=none;endFill=0;" parent="1" source="JOiULctxTrwkrGutLJkI-26" target="JOiULctxTrwkrGutLJkI-50" edge="1">
          <mxGeometry relative="1" as="geometry" />
        </mxCell>
        <mxCell id="JOiULctxTrwkrGutLJkI-26" value="helyszín" style="ellipse;whiteSpace=wrap;html=1;fontSize=15;" parent="1" vertex="1">
          <mxGeometry x="-160" y="410" width="90" height="60" as="geometry" />
        </mxCell>
        <mxCell id="JOiULctxTrwkrGutLJkI-30" style="rounded=0;orthogonalLoop=1;jettySize=auto;html=1;exitX=0.5;exitY=0;exitDx=0;exitDy=0;endArrow=none;endFill=0;entryX=0.5;entryY=1;entryDx=0;entryDy=0;" parent="1" source="JOiULctxTrwkrGutLJkI-27" target="JOiULctxTrwkrGutLJkI-81" edge="1">
          <mxGeometry relative="1" as="geometry">
            <mxPoint x="-50" y="340" as="targetPoint" />
          </mxGeometry>
        </mxCell>
        <mxCell id="JOiULctxTrwkrGutLJkI-52" style="rounded=0;orthogonalLoop=1;jettySize=auto;html=1;exitX=0.5;exitY=1;exitDx=0;exitDy=0;entryX=0.5;entryY=0;entryDx=0;entryDy=0;endArrow=none;endFill=0;" parent="1" source="JOiULctxTrwkrGutLJkI-27" target="JOiULctxTrwkrGutLJkI-51" edge="1">
          <mxGeometry relative="1" as="geometry" />
        </mxCell>
        <mxCell id="JOiULctxTrwkrGutLJkI-27" value="év" style="ellipse;whiteSpace=wrap;html=1;fontSize=15;" parent="1" vertex="1">
          <mxGeometry x="-40" y="410" width="70" height="60" as="geometry" />
        </mxCell>
        <mxCell id="JOiULctxTrwkrGutLJkI-34" style="edgeStyle=orthogonalEdgeStyle;rounded=0;orthogonalLoop=1;jettySize=auto;html=1;entryX=0;entryY=0.5;entryDx=0;entryDy=0;" parent="1" source="JOiULctxTrwkrGutLJkI-33" target="JOiULctxTrwkrGutLJkI-23" edge="1">
          <mxGeometry relative="1" as="geometry" />
        </mxCell>
        <mxCell id="JOiULctxTrwkrGutLJkI-35" style="rounded=0;orthogonalLoop=1;jettySize=auto;html=1;exitX=0;exitY=0.5;exitDx=0;exitDy=0;entryX=0.938;entryY=0.5;entryDx=0;entryDy=0;endArrow=none;endFill=0;entryPerimeter=0;" parent="1" source="JOiULctxTrwkrGutLJkI-33" target="JOiULctxTrwkrGutLJkI-80" edge="1">
          <mxGeometry relative="1" as="geometry">
            <mxPoint x="-519.9999999999989" y="350" as="targetPoint" />
          </mxGeometry>
        </mxCell>
        <mxCell id="JOiULctxTrwkrGutLJkI-33" value="FEL_FESZ" style="rhombus;whiteSpace=wrap;html=1;fontSize=15;" parent="1" vertex="1">
          <mxGeometry x="-500" y="305" width="100" height="90" as="geometry" />
        </mxCell>
        <mxCell id="JOiULctxTrwkrGutLJkI-39" style="rounded=0;orthogonalLoop=1;jettySize=auto;html=1;exitX=0.5;exitY=0;exitDx=0;exitDy=0;entryX=0.5;entryY=1;entryDx=0;entryDy=0;endArrow=none;endFill=0;" parent="1" source="JOiULctxTrwkrGutLJkI-36" target="JOiULctxTrwkrGutLJkI-80" edge="1">
          <mxGeometry relative="1" as="geometry">
            <mxPoint x="-565" y="380" as="targetPoint" />
          </mxGeometry>
        </mxCell>
        <mxCell id="JOiULctxTrwkrGutLJkI-36" value="név" style="ellipse;whiteSpace=wrap;html=1;fontSize=15;" parent="1" vertex="1">
          <mxGeometry x="-710" y="420" width="70" height="60" as="geometry" />
        </mxCell>
        <mxCell id="JOiULctxTrwkrGutLJkI-40" style="rounded=0;orthogonalLoop=1;jettySize=auto;html=1;exitX=0.5;exitY=0;exitDx=0;exitDy=0;entryX=0.5;entryY=1;entryDx=0;entryDy=0;endArrow=none;endFill=0;" parent="1" source="JOiULctxTrwkrGutLJkI-37" target="JOiULctxTrwkrGutLJkI-80" edge="1">
          <mxGeometry relative="1" as="geometry">
            <mxPoint x="-565" y="380" as="targetPoint" />
          </mxGeometry>
        </mxCell>
        <mxCell id="JOiULctxTrwkrGutLJkI-37" value="ország" style="ellipse;whiteSpace=wrap;html=1;fontSize=15;" parent="1" vertex="1">
          <mxGeometry x="-610" y="420" width="90" height="60" as="geometry" />
        </mxCell>
        <mxCell id="JOiULctxTrwkrGutLJkI-41" style="rounded=0;orthogonalLoop=1;jettySize=auto;html=1;exitX=0.5;exitY=0;exitDx=0;exitDy=0;entryX=0.5;entryY=1;entryDx=0;entryDy=0;endArrow=none;endFill=0;" parent="1" source="JOiULctxTrwkrGutLJkI-38" target="JOiULctxTrwkrGutLJkI-80" edge="1">
          <mxGeometry relative="1" as="geometry">
            <mxPoint x="-565" y="380" as="targetPoint" />
          </mxGeometry>
        </mxCell>
        <mxCell id="JOiULctxTrwkrGutLJkI-38" value="díj" style="ellipse;whiteSpace=wrap;html=1;fontSize=15;" parent="1" vertex="1">
          <mxGeometry x="-490" y="420" width="80" height="60" as="geometry" />
        </mxCell>
        <mxCell id="JOiULctxTrwkrGutLJkI-43" style="rounded=0;orthogonalLoop=1;jettySize=auto;html=1;exitX=1;exitY=0.5;exitDx=0;exitDy=0;entryX=0;entryY=0.5;entryDx=0;entryDy=0;endArrow=none;endFill=0;" parent="1" source="JOiULctxTrwkrGutLJkI-42" target="JOiULctxTrwkrGutLJkI-80" edge="1">
          <mxGeometry relative="1" as="geometry">
            <mxPoint x="-610.0000000000009" y="350" as="targetPoint" />
          </mxGeometry>
        </mxCell>
        <mxCell id="JOiULctxTrwkrGutLJkI-42" value="&lt;u&gt;FEL_ID&lt;/u&gt;" style="rhombus;whiteSpace=wrap;html=1;fontSize=15;" parent="1" vertex="1">
          <mxGeometry x="-740" y="305" width="80" height="90" as="geometry" />
        </mxCell>
        <mxCell id="JOiULctxTrwkrGutLJkI-47" style="rounded=0;orthogonalLoop=1;jettySize=auto;html=1;exitX=1;exitY=0.5;exitDx=0;exitDy=0;entryX=0;entryY=0.5;entryDx=0;entryDy=0;endArrow=none;endFill=0;" parent="1" source="JOiULctxTrwkrGutLJkI-44" target="JOiULctxTrwkrGutLJkI-84" edge="1">
          <mxGeometry relative="1" as="geometry">
            <mxPoint x="200" y="350" as="targetPoint" />
          </mxGeometry>
        </mxCell>
        <mxCell id="JOiULctxTrwkrGutLJkI-48" style="edgeStyle=orthogonalEdgeStyle;rounded=0;orthogonalLoop=1;jettySize=auto;html=1;exitX=0.5;exitY=1;exitDx=0;exitDy=0;entryX=1;entryY=1;entryDx=0;entryDy=0;" parent="1" source="JOiULctxTrwkrGutLJkI-44" target="JOiULctxTrwkrGutLJkI-23" edge="1">
          <mxGeometry relative="1" as="geometry">
            <mxPoint x="-290" y="380" as="targetPoint" />
            <Array as="points">
              <mxPoint x="80" y="560" />
              <mxPoint x="-285" y="560" />
            </Array>
          </mxGeometry>
        </mxCell>
        <mxCell id="JOiULctxTrwkrGutLJkI-44" value="FESZ_B" style="rhombus;whiteSpace=wrap;html=1;fontSize=15;" parent="1" vertex="1">
          <mxGeometry x="40" y="310" width="80" height="80" as="geometry" />
        </mxCell>
        <mxCell id="JOiULctxTrwkrGutLJkI-73" style="rounded=0;orthogonalLoop=1;jettySize=auto;html=1;exitX=0.5;exitY=0;exitDx=0;exitDy=0;entryX=0.5;entryY=1;entryDx=0;entryDy=0;endArrow=none;endFill=0;" parent="1" source="JOiULctxTrwkrGutLJkI-87" target="JOiULctxTrwkrGutLJkI-7" edge="1">
          <mxGeometry relative="1" as="geometry">
            <mxPoint x="872" y="320" as="sourcePoint" />
          </mxGeometry>
        </mxCell>
        <mxCell id="JOiULctxTrwkrGutLJkI-49" value="" style="rounded=0;whiteSpace=wrap;html=1;" parent="1" vertex="1">
          <mxGeometry x="-245" y="500" width="30" height="40" as="geometry" />
        </mxCell>
        <mxCell id="JOiULctxTrwkrGutLJkI-50" value="" style="rounded=0;whiteSpace=wrap;html=1;" parent="1" vertex="1">
          <mxGeometry x="-130" y="500" width="30" height="40" as="geometry" />
        </mxCell>
        <mxCell id="JOiULctxTrwkrGutLJkI-51" value="" style="rounded=0;whiteSpace=wrap;html=1;" parent="1" vertex="1">
          <mxGeometry x="-20" y="500" width="30" height="40" as="geometry" />
        </mxCell>
        <mxCell id="JOiULctxTrwkrGutLJkI-55" value="&lt;u&gt;B_ID&lt;/u&gt;" style="rhombus;whiteSpace=wrap;html=1;fontSize=15;" parent="1" vertex="1">
          <mxGeometry x="310" y="315" width="80" height="70" as="geometry" />
        </mxCell>
        <mxCell id="JOiULctxTrwkrGutLJkI-63" style="rounded=0;orthogonalLoop=1;jettySize=auto;html=1;exitX=0.5;exitY=0;exitDx=0;exitDy=0;endArrow=none;endFill=0;entryX=0.5;entryY=1;entryDx=0;entryDy=0;" parent="1" source="JOiULctxTrwkrGutLJkI-57" target="JOiULctxTrwkrGutLJkI-84" edge="1">
          <mxGeometry relative="1" as="geometry">
            <mxPoint x="200" y="390" as="targetPoint" />
          </mxGeometry>
        </mxCell>
        <mxCell id="JOiULctxTrwkrGutLJkI-57" value="név" style="ellipse;whiteSpace=wrap;html=1;fontSize=15;" parent="1" vertex="1">
          <mxGeometry x="110" y="410" width="70" height="60" as="geometry" />
        </mxCell>
        <mxCell id="JOiULctxTrwkrGutLJkI-65" style="rounded=0;orthogonalLoop=1;jettySize=auto;html=1;exitX=0.5;exitY=0;exitDx=0;exitDy=0;endArrow=none;endFill=0;entryX=0.5;entryY=1;entryDx=0;entryDy=0;" parent="1" source="JOiULctxTrwkrGutLJkI-59" target="JOiULctxTrwkrGutLJkI-84" edge="1">
          <mxGeometry relative="1" as="geometry">
            <mxPoint x="260" y="390" as="targetPoint" />
          </mxGeometry>
        </mxCell>
        <mxCell id="JOiULctxTrwkrGutLJkI-59" value="cég" style="ellipse;whiteSpace=wrap;html=1;fontSize=15;" parent="1" vertex="1">
          <mxGeometry x="310" y="410" width="90" height="60" as="geometry" />
        </mxCell>
        <mxCell id="JOiULctxTrwkrGutLJkI-64" style="rounded=0;orthogonalLoop=1;jettySize=auto;html=1;exitX=0.5;exitY=0;exitDx=0;exitDy=0;endArrow=none;endFill=0;entryX=0.5;entryY=1;entryDx=0;entryDy=0;" parent="1" source="JOiULctxTrwkrGutLJkI-62" target="JOiULctxTrwkrGutLJkI-84" edge="1">
          <mxGeometry relative="1" as="geometry">
            <mxPoint x="220" y="390" as="targetPoint" />
          </mxGeometry>
        </mxCell>
        <mxCell id="JOiULctxTrwkrGutLJkI-62" value="ital" style="ellipse;shape=doubleEllipse;whiteSpace=wrap;html=1;fontSize=15;" parent="1" vertex="1">
          <mxGeometry x="200" y="409.9999999999998" width="80" height="60" as="geometry" />
        </mxCell>
        <mxCell id="JOiULctxTrwkrGutLJkI-68" style="rounded=0;orthogonalLoop=1;jettySize=auto;html=1;exitX=0;exitY=0.5;exitDx=0;exitDy=0;entryX=1;entryY=0.5;entryDx=0;entryDy=0;endArrow=classic;endFill=1;" parent="1" source="JOiULctxTrwkrGutLJkI-67" target="JOiULctxTrwkrGutLJkI-55" edge="1">
          <mxGeometry relative="1" as="geometry" />
        </mxCell>
        <mxCell id="JOiULctxTrwkrGutLJkI-69" style="rounded=0;orthogonalLoop=1;jettySize=auto;html=1;exitX=1;exitY=0.5;exitDx=0;exitDy=0;entryX=0;entryY=0.5;entryDx=0;entryDy=0;endArrow=none;endFill=0;" parent="1" source="JOiULctxTrwkrGutLJkI-67" target="JOiULctxTrwkrGutLJkI-85" edge="1">
          <mxGeometry relative="1" as="geometry">
            <mxPoint x="520.0000000000043" y="350" as="targetPoint" />
          </mxGeometry>
        </mxCell>
        <mxCell id="JOiULctxTrwkrGutLJkI-67" value="B_A" style="rhombus;whiteSpace=wrap;html=1;fontSize=15;" parent="1" vertex="1">
          <mxGeometry x="430" y="320" width="70" height="60" as="geometry" />
        </mxCell>
        <mxCell id="JOiULctxTrwkrGutLJkI-74" style="rounded=0;orthogonalLoop=1;jettySize=auto;html=1;exitX=0.5;exitY=0;exitDx=0;exitDy=0;entryX=0.5;entryY=1;entryDx=0;entryDy=0;endArrow=none;endFill=0;" parent="1" source="JOiULctxTrwkrGutLJkI-70" target="JOiULctxTrwkrGutLJkI-85" edge="1">
          <mxGeometry relative="1" as="geometry">
            <mxPoint x="570" y="380" as="targetPoint" />
          </mxGeometry>
        </mxCell>
        <mxCell id="JOiULctxTrwkrGutLJkI-70" value="név" style="ellipse;whiteSpace=wrap;html=1;fontSize=15;" parent="1" vertex="1">
          <mxGeometry x="440" y="410" width="70" height="60" as="geometry" />
        </mxCell>
        <mxCell id="JOiULctxTrwkrGutLJkI-75" style="rounded=0;orthogonalLoop=1;jettySize=auto;html=1;exitX=0.5;exitY=0;exitDx=0;exitDy=0;entryX=0.5;entryY=1;entryDx=0;entryDy=0;endArrow=none;endFill=0;" parent="1" source="JOiULctxTrwkrGutLJkI-71" target="JOiULctxTrwkrGutLJkI-85" edge="1">
          <mxGeometry relative="1" as="geometry">
            <mxPoint x="570" y="380" as="targetPoint" />
          </mxGeometry>
        </mxCell>
        <mxCell id="JOiULctxTrwkrGutLJkI-71" value="műszak" style="ellipse;shape=doubleEllipse;whiteSpace=wrap;html=1;fontSize=15;" parent="1" vertex="1">
          <mxGeometry x="530" y="409.9999999999998" width="80" height="60" as="geometry" />
        </mxCell>
        <mxCell id="JOiULctxTrwkrGutLJkI-76" style="rounded=0;orthogonalLoop=1;jettySize=auto;html=1;exitX=0.5;exitY=0;exitDx=0;exitDy=0;endArrow=none;endFill=0;entryX=0.5;entryY=1;entryDx=0;entryDy=0;" parent="1" source="JOiULctxTrwkrGutLJkI-72" target="JOiULctxTrwkrGutLJkI-85" edge="1">
          <mxGeometry relative="1" as="geometry">
            <mxPoint x="570" y="380" as="targetPoint" />
          </mxGeometry>
        </mxCell>
        <mxCell id="JOiULctxTrwkrGutLJkI-72" value="fizetés" style="ellipse;whiteSpace=wrap;html=1;fontSize=15;" parent="1" vertex="1">
          <mxGeometry x="630" y="410" width="80" height="60" as="geometry" />
        </mxCell>
        <mxCell id="JOiULctxTrwkrGutLJkI-78" style="rounded=0;orthogonalLoop=1;jettySize=auto;html=1;exitX=1;exitY=0.5;exitDx=0;exitDy=0;entryX=0;entryY=0.5;entryDx=0;entryDy=0;endArrow=none;endFill=0;" parent="1" source="JOiULctxTrwkrGutLJkI-77" target="JOiULctxTrwkrGutLJkI-87" edge="1">
          <mxGeometry relative="1" as="geometry">
            <mxPoint x="827.0000000000023" y="350" as="targetPoint" />
          </mxGeometry>
        </mxCell>
        <mxCell id="JOiULctxTrwkrGutLJkI-79" style="edgeStyle=orthogonalEdgeStyle;rounded=0;orthogonalLoop=1;jettySize=auto;html=1;exitX=0.5;exitY=1;exitDx=0;exitDy=0;entryX=0.5;entryY=1;entryDx=0;entryDy=0;" parent="1" source="JOiULctxTrwkrGutLJkI-77" target="JOiULctxTrwkrGutLJkI-23" edge="1">
          <mxGeometry relative="1" as="geometry">
            <Array as="points">
              <mxPoint x="765" y="590" />
              <mxPoint x="-310" y="590" />
            </Array>
          </mxGeometry>
        </mxCell>
        <mxCell id="JOiULctxTrwkrGutLJkI-77" value="FESZ_T" style="rhombus;whiteSpace=wrap;html=1;fontSize=15;" parent="1" vertex="1">
          <mxGeometry x="730" y="320" width="70" height="60" as="geometry" />
        </mxCell>
        <mxCell id="JOiULctxTrwkrGutLJkI-80" value="Fellépő" style="ellipse;shape=doubleEllipse;whiteSpace=wrap;html=1;fontSize=15;" parent="1" vertex="1">
          <mxGeometry x="-605" y="320" width="80" height="60" as="geometry" />
        </mxCell>
        <mxCell id="JOiULctxTrwkrGutLJkI-81" value="Fesztivál" style="ellipse;shape=doubleEllipse;whiteSpace=wrap;html=1;fontSize=15;" parent="1" vertex="1">
          <mxGeometry x="-140" y="320" width="80" height="60" as="geometry" />
        </mxCell>
        <mxCell id="JOiULctxTrwkrGutLJkI-84" value="Bár" style="ellipse;shape=doubleEllipse;whiteSpace=wrap;html=1;fontSize=15;" parent="1" vertex="1">
          <mxGeometry x="195" y="320" width="80" height="60" as="geometry" />
        </mxCell>
        <mxCell id="JQOfHqwf0Z415girIw8Z-2" style="rounded=0;orthogonalLoop=1;jettySize=auto;html=1;exitX=1;exitY=0.5;exitDx=0;exitDy=0;entryX=0;entryY=0.5;entryDx=0;entryDy=0;endArrow=none;endFill=0;" parent="1" source="JOiULctxTrwkrGutLJkI-85" target="JQOfHqwf0Z415girIw8Z-1" edge="1">
          <mxGeometry relative="1" as="geometry" />
        </mxCell>
        <mxCell id="JOiULctxTrwkrGutLJkI-85" value="Alkalmazott" style="ellipse;shape=doubleEllipse;whiteSpace=wrap;html=1;fontSize=15;" parent="1" vertex="1">
          <mxGeometry x="530" y="320" width="100" height="60" as="geometry" />
        </mxCell>
        <mxCell id="JOiULctxTrwkrGutLJkI-95" style="rounded=0;orthogonalLoop=1;jettySize=auto;html=1;exitX=1;exitY=0.5;exitDx=0;exitDy=0;entryX=0;entryY=0.5;entryDx=0;entryDy=0;endArrow=none;endFill=0;" parent="1" source="JOiULctxTrwkrGutLJkI-87" target="JOiULctxTrwkrGutLJkI-94" edge="1">
          <mxGeometry relative="1" as="geometry" />
        </mxCell>
        <mxCell id="JOiULctxTrwkrGutLJkI-87" value="Tulajdonos" style="ellipse;shape=doubleEllipse;whiteSpace=wrap;html=1;fontSize=15;" parent="1" vertex="1">
          <mxGeometry x="910" y="320" width="80" height="60" as="geometry" />
        </mxCell>
        <mxCell id="JOiULctxTrwkrGutLJkI-105" style="rounded=0;orthogonalLoop=1;jettySize=auto;html=1;exitX=0;exitY=0.5;exitDx=0;exitDy=0;entryX=1;entryY=0.5;entryDx=0;entryDy=0;endArrow=none;endFill=0;" parent="1" source="JOiULctxTrwkrGutLJkI-89" target="JOiULctxTrwkrGutLJkI-104" edge="1">
          <mxGeometry relative="1" as="geometry" />
        </mxCell>
        <mxCell id="JOiULctxTrwkrGutLJkI-111" style="rounded=0;orthogonalLoop=1;jettySize=auto;html=1;exitX=1;exitY=0.5;exitDx=0;exitDy=0;entryX=0;entryY=0.5;entryDx=0;entryDy=0;endArrow=none;endFill=0;" parent="1" source="JOiULctxTrwkrGutLJkI-89" target="JOiULctxTrwkrGutLJkI-110" edge="1">
          <mxGeometry relative="1" as="geometry" />
        </mxCell>
        <mxCell id="JOiULctxTrwkrGutLJkI-89" value="Résztvevő" style="ellipse;shape=doubleEllipse;whiteSpace=wrap;html=1;fontSize=15;" parent="1" vertex="1">
          <mxGeometry x="1330" y="320" width="80" height="60" as="geometry" />
        </mxCell>
        <mxCell id="JOiULctxTrwkrGutLJkI-92" value="Közvélemény" style="ellipse;shape=doubleEllipse;whiteSpace=wrap;html=1;fontSize=15;" parent="1" vertex="1">
          <mxGeometry x="1680" y="320" width="110" height="60" as="geometry" />
        </mxCell>
        <mxCell id="JOiULctxTrwkrGutLJkI-93" value="Nyelvtudás" style="ellipse;shape=doubleEllipse;whiteSpace=wrap;html=1;fontSize=15;" parent="1" vertex="1">
          <mxGeometry x="2000" y="320" width="90" height="60" as="geometry" />
        </mxCell>
        <mxCell id="JOiULctxTrwkrGutLJkI-94" value="&lt;u&gt;T_ID&lt;/u&gt;" style="rhombus;whiteSpace=wrap;html=1;fontSize=15;" parent="1" vertex="1">
          <mxGeometry x="1030" y="320" width="60" height="60" as="geometry" />
        </mxCell>
        <mxCell id="JOiULctxTrwkrGutLJkI-100" style="rounded=0;orthogonalLoop=1;jettySize=auto;html=1;exitX=0.5;exitY=0;exitDx=0;exitDy=0;entryX=0.5;entryY=1;entryDx=0;entryDy=0;endArrow=none;endFill=0;" parent="1" source="JOiULctxTrwkrGutLJkI-96" target="JOiULctxTrwkrGutLJkI-87" edge="1">
          <mxGeometry relative="1" as="geometry" />
        </mxCell>
        <mxCell id="JOiULctxTrwkrGutLJkI-96" value="név" style="ellipse;whiteSpace=wrap;html=1;fontSize=15;" parent="1" vertex="1">
          <mxGeometry x="780" y="410" width="60" height="60" as="geometry" />
        </mxCell>
        <mxCell id="JOiULctxTrwkrGutLJkI-101" style="rounded=0;orthogonalLoop=1;jettySize=auto;html=1;exitX=0.5;exitY=0;exitDx=0;exitDy=0;entryX=0.5;entryY=1;entryDx=0;entryDy=0;endArrow=none;endFill=0;" parent="1" source="JOiULctxTrwkrGutLJkI-97" target="JOiULctxTrwkrGutLJkI-87" edge="1">
          <mxGeometry relative="1" as="geometry" />
        </mxCell>
        <mxCell id="JOiULctxTrwkrGutLJkI-97" value="adószám" style="ellipse;whiteSpace=wrap;html=1;fontSize=15;" parent="1" vertex="1">
          <mxGeometry x="850" y="410" width="80" height="60" as="geometry" />
        </mxCell>
        <mxCell id="JOiULctxTrwkrGutLJkI-102" style="rounded=0;orthogonalLoop=1;jettySize=auto;html=1;exitX=0.5;exitY=0;exitDx=0;exitDy=0;endArrow=none;endFill=0;" parent="1" source="JOiULctxTrwkrGutLJkI-98" edge="1">
          <mxGeometry relative="1" as="geometry">
            <mxPoint x="950" y="380" as="targetPoint" />
          </mxGeometry>
        </mxCell>
        <mxCell id="JOiULctxTrwkrGutLJkI-98" value="alapítás" style="ellipse;whiteSpace=wrap;html=1;fontSize=15;" parent="1" vertex="1">
          <mxGeometry x="940" y="410" width="80" height="60" as="geometry" />
        </mxCell>
        <mxCell id="JOiULctxTrwkrGutLJkI-103" style="rounded=0;orthogonalLoop=1;jettySize=auto;html=1;exitX=0.5;exitY=0;exitDx=0;exitDy=0;entryX=0.5;entryY=1;entryDx=0;entryDy=0;endArrow=none;endFill=0;" parent="1" source="JOiULctxTrwkrGutLJkI-99" target="JOiULctxTrwkrGutLJkI-87" edge="1">
          <mxGeometry relative="1" as="geometry">
            <mxPoint x="1010" y="380" as="targetPoint" />
          </mxGeometry>
        </mxCell>
        <mxCell id="JOiULctxTrwkrGutLJkI-99" value="bevétel" style="ellipse;whiteSpace=wrap;html=1;fontSize=15;" parent="1" vertex="1">
          <mxGeometry x="1030" y="410" width="80" height="60" as="geometry" />
        </mxCell>
        <mxCell id="JOiULctxTrwkrGutLJkI-106" style="edgeStyle=orthogonalEdgeStyle;rounded=0;orthogonalLoop=1;jettySize=auto;html=1;exitX=0.5;exitY=1;exitDx=0;exitDy=0;entryX=0;entryY=1;entryDx=0;entryDy=0;" parent="1" source="JOiULctxTrwkrGutLJkI-104" target="JOiULctxTrwkrGutLJkI-23" edge="1">
          <mxGeometry relative="1" as="geometry">
            <Array as="points">
              <mxPoint x="1155" y="620" />
              <mxPoint x="-335" y="620" />
            </Array>
          </mxGeometry>
        </mxCell>
        <mxCell id="JOiULctxTrwkrGutLJkI-104" value="FESZ_R" style="rhombus;whiteSpace=wrap;html=1;fontSize=15;" parent="1" vertex="1">
          <mxGeometry x="1120" y="315" width="70" height="70" as="geometry" />
        </mxCell>
        <mxCell id="JOiULctxTrwkrGutLJkI-113" style="rounded=0;orthogonalLoop=1;jettySize=auto;html=1;exitX=0.5;exitY=0;exitDx=0;exitDy=0;entryX=0.5;entryY=1;entryDx=0;entryDy=0;endArrow=none;endFill=0;" parent="1" source="JOiULctxTrwkrGutLJkI-107" target="JOiULctxTrwkrGutLJkI-89" edge="1">
          <mxGeometry relative="1" as="geometry" />
        </mxCell>
        <mxCell id="JOiULctxTrwkrGutLJkI-107" value="név" style="ellipse;whiteSpace=wrap;html=1;fontSize=15;" parent="1" vertex="1">
          <mxGeometry x="1200" y="410" width="59" height="60" as="geometry" />
        </mxCell>
        <mxCell id="JOiULctxTrwkrGutLJkI-114" style="rounded=0;orthogonalLoop=1;jettySize=auto;html=1;exitX=0.5;exitY=0;exitDx=0;exitDy=0;entryX=0.5;entryY=1;entryDx=0;entryDy=0;endArrow=none;endFill=0;" parent="1" source="JOiULctxTrwkrGutLJkI-108" target="JOiULctxTrwkrGutLJkI-89" edge="1">
          <mxGeometry relative="1" as="geometry" />
        </mxCell>
        <mxCell id="JOiULctxTrwkrGutLJkI-108" value="diákigazolvány (O)" style="ellipse;whiteSpace=wrap;html=1;fontSize=15;dashed=1;" parent="1" vertex="1">
          <mxGeometry x="1269" y="410" width="140" height="60" as="geometry" />
        </mxCell>
        <mxCell id="JOiULctxTrwkrGutLJkI-110" value="&lt;u&gt;R_ID&lt;/u&gt;" style="rhombus;whiteSpace=wrap;html=1;fontSize=15;" parent="1" vertex="1">
          <mxGeometry x="1460" y="320" width="60" height="60" as="geometry" />
        </mxCell>
        <mxCell id="JOiULctxTrwkrGutLJkI-115" style="rounded=0;orthogonalLoop=1;jettySize=auto;html=1;exitX=0.5;exitY=0;exitDx=0;exitDy=0;entryX=0.5;entryY=1;entryDx=0;entryDy=0;endArrow=none;endFill=0;" parent="1" source="JOiULctxTrwkrGutLJkI-112" target="JOiULctxTrwkrGutLJkI-89" edge="1">
          <mxGeometry relative="1" as="geometry" />
        </mxCell>
        <mxCell id="JOiULctxTrwkrGutLJkI-112" value="lakcím" style="ellipse;whiteSpace=wrap;html=1;fontSize=15;" parent="1" vertex="1">
          <mxGeometry x="1470" y="410" width="80" height="60" as="geometry" />
        </mxCell>
        <mxCell id="JOiULctxTrwkrGutLJkI-117" style="edgeStyle=orthogonalEdgeStyle;rounded=0;orthogonalLoop=1;jettySize=auto;html=1;exitX=0;exitY=0.5;exitDx=0;exitDy=0;entryX=1;entryY=0.5;entryDx=0;entryDy=0;" parent="1" source="JOiULctxTrwkrGutLJkI-116" target="JOiULctxTrwkrGutLJkI-110" edge="1">
          <mxGeometry relative="1" as="geometry" />
        </mxCell>
        <mxCell id="JOiULctxTrwkrGutLJkI-118" style="rounded=0;orthogonalLoop=1;jettySize=auto;html=1;exitX=1;exitY=0.5;exitDx=0;exitDy=0;entryX=0;entryY=0.5;entryDx=0;entryDy=0;endArrow=none;endFill=0;" parent="1" source="JOiULctxTrwkrGutLJkI-116" target="JOiULctxTrwkrGutLJkI-92" edge="1">
          <mxGeometry relative="1" as="geometry" />
        </mxCell>
        <mxCell id="JOiULctxTrwkrGutLJkI-116" value="K_R" style="rhombus;whiteSpace=wrap;html=1;fontSize=15;" parent="1" vertex="1">
          <mxGeometry x="1580" y="320" width="60" height="60" as="geometry" />
        </mxCell>
        <mxCell id="JOiULctxTrwkrGutLJkI-120" style="rounded=0;orthogonalLoop=1;jettySize=auto;html=1;exitX=0;exitY=0.5;exitDx=0;exitDy=0;entryX=1;entryY=0.5;entryDx=0;entryDy=0;endArrow=none;endFill=0;" parent="1" source="JOiULctxTrwkrGutLJkI-119" target="JOiULctxTrwkrGutLJkI-92" edge="1">
          <mxGeometry relative="1" as="geometry" />
        </mxCell>
        <mxCell id="JOiULctxTrwkrGutLJkI-126" style="edgeStyle=orthogonalEdgeStyle;rounded=0;orthogonalLoop=1;jettySize=auto;html=1;exitX=1;exitY=0.5;exitDx=0;exitDy=0;entryX=0;entryY=0.5;entryDx=0;entryDy=0;" parent="1" source="JOiULctxTrwkrGutLJkI-119" target="JOiULctxTrwkrGutLJkI-125" edge="1">
          <mxGeometry relative="1" as="geometry" />
        </mxCell>
        <mxCell id="JOiULctxTrwkrGutLJkI-119" value="K_NY" style="rhombus;whiteSpace=wrap;html=1;fontSize=15;" parent="1" vertex="1">
          <mxGeometry x="1820" y="320" width="60" height="60" as="geometry" />
        </mxCell>
        <mxCell id="JOiULctxTrwkrGutLJkI-121" value="K_ID" style="rhombus;whiteSpace=wrap;html=1;fontSize=15;" parent="1" vertex="1">
          <mxGeometry x="1650" y="410" width="60" height="60" as="geometry" />
        </mxCell>
        <mxCell id="JOiULctxTrwkrGutLJkI-124" style="rounded=0;orthogonalLoop=1;jettySize=auto;html=1;exitX=0.5;exitY=0;exitDx=0;exitDy=0;entryX=0.5;entryY=1;entryDx=0;entryDy=0;endArrow=none;endFill=0;" parent="1" source="JOiULctxTrwkrGutLJkI-122" target="JOiULctxTrwkrGutLJkI-92" edge="1">
          <mxGeometry relative="1" as="geometry">
            <mxPoint x="1730" y="400" as="targetPoint" />
          </mxGeometry>
        </mxCell>
        <mxCell id="JOiULctxTrwkrGutLJkI-122" value="kérdező" style="ellipse;whiteSpace=wrap;html=1;fontSize=15;" parent="1" vertex="1">
          <mxGeometry x="1730" y="410" width="80" height="60" as="geometry" />
        </mxCell>
        <mxCell id="JOiULctxTrwkrGutLJkI-123" style="rounded=0;orthogonalLoop=1;jettySize=auto;html=1;exitX=0.5;exitY=0;exitDx=0;exitDy=0;entryX=0.5;entryY=1;entryDx=0;entryDy=0;endArrow=none;endFill=0;" parent="1" source="JOiULctxTrwkrGutLJkI-121" target="JOiULctxTrwkrGutLJkI-92" edge="1">
          <mxGeometry relative="1" as="geometry" />
        </mxCell>
        <mxCell id="JOiULctxTrwkrGutLJkI-127" style="rounded=0;orthogonalLoop=1;jettySize=auto;html=1;exitX=1;exitY=0.5;exitDx=0;exitDy=0;entryX=0;entryY=0.5;entryDx=0;entryDy=0;endArrow=none;endFill=0;" parent="1" source="JOiULctxTrwkrGutLJkI-125" target="JOiULctxTrwkrGutLJkI-93" edge="1">
          <mxGeometry relative="1" as="geometry" />
        </mxCell>
        <mxCell id="JOiULctxTrwkrGutLJkI-125" value="&lt;u&gt;NY_ID&lt;/u&gt;" style="rhombus;whiteSpace=wrap;html=1;fontSize=15;" parent="1" vertex="1">
          <mxGeometry x="1920" y="320" width="60" height="60" as="geometry" />
        </mxCell>
        <mxCell id="JOiULctxTrwkrGutLJkI-130" style="rounded=0;orthogonalLoop=1;jettySize=auto;html=1;exitX=0.5;exitY=0;exitDx=0;exitDy=0;entryX=0.5;entryY=1;entryDx=0;entryDy=0;endArrow=none;endFill=0;" parent="1" source="JOiULctxTrwkrGutLJkI-128" target="JOiULctxTrwkrGutLJkI-93" edge="1">
          <mxGeometry relative="1" as="geometry" />
        </mxCell>
        <mxCell id="JOiULctxTrwkrGutLJkI-128" value="nyelv" style="ellipse;whiteSpace=wrap;html=1;fontSize=15;" parent="1" vertex="1">
          <mxGeometry x="1970" y="410" width="60" height="60" as="geometry" />
        </mxCell>
        <mxCell id="JOiULctxTrwkrGutLJkI-131" style="rounded=0;orthogonalLoop=1;jettySize=auto;html=1;exitX=0.5;exitY=0;exitDx=0;exitDy=0;entryX=0.5;entryY=1;entryDx=0;entryDy=0;endArrow=none;endFill=0;" parent="1" source="JOiULctxTrwkrGutLJkI-129" target="JOiULctxTrwkrGutLJkI-93" edge="1">
          <mxGeometry relative="1" as="geometry">
            <mxPoint x="2099.9999999999995" y="390" as="targetPoint" />
          </mxGeometry>
        </mxCell>
        <mxCell id="JOiULctxTrwkrGutLJkI-129" value="szint" style="ellipse;whiteSpace=wrap;html=1;fontSize=15;" parent="1" vertex="1">
          <mxGeometry x="2060" y="410" width="60" height="60" as="geometry" />
        </mxCell>
        <mxCell id="JOiULctxTrwkrGutLJkI-133" style="rounded=0;orthogonalLoop=1;jettySize=auto;html=1;exitX=0.5;exitY=0;exitDx=0;exitDy=0;entryX=0.5;entryY=1;entryDx=0;entryDy=0;endArrow=none;endFill=0;" parent="1" source="JOiULctxTrwkrGutLJkI-132" target="JOiULctxTrwkrGutLJkI-36" edge="1">
          <mxGeometry relative="1" as="geometry" />
        </mxCell>
        <mxCell id="JOiULctxTrwkrGutLJkI-132" value="" style="rounded=0;whiteSpace=wrap;html=1;" parent="1" vertex="1">
          <mxGeometry x="-690" y="500" width="30" height="40" as="geometry" />
        </mxCell>
        <mxCell id="JOiULctxTrwkrGutLJkI-136" style="rounded=0;orthogonalLoop=1;jettySize=auto;html=1;exitX=0.5;exitY=0;exitDx=0;exitDy=0;entryX=0.5;entryY=1;entryDx=0;entryDy=0;endArrow=none;endFill=0;" parent="1" source="JOiULctxTrwkrGutLJkI-135" target="JOiULctxTrwkrGutLJkI-37" edge="1">
          <mxGeometry relative="1" as="geometry" />
        </mxCell>
        <mxCell id="JOiULctxTrwkrGutLJkI-135" value="" style="rounded=0;whiteSpace=wrap;html=1;" parent="1" vertex="1">
          <mxGeometry x="-580" y="500" width="30" height="40" as="geometry" />
        </mxCell>
        <mxCell id="JOiULctxTrwkrGutLJkI-139" style="rounded=0;orthogonalLoop=1;jettySize=auto;html=1;exitX=0.5;exitY=0;exitDx=0;exitDy=0;entryX=0.5;entryY=1;entryDx=0;entryDy=0;endArrow=none;endFill=0;" parent="1" source="JOiULctxTrwkrGutLJkI-138" target="JOiULctxTrwkrGutLJkI-38" edge="1">
          <mxGeometry relative="1" as="geometry" />
        </mxCell>
        <mxCell id="JOiULctxTrwkrGutLJkI-138" value="" style="rounded=0;whiteSpace=wrap;html=1;" parent="1" vertex="1">
          <mxGeometry x="-465" y="500" width="30" height="40" as="geometry" />
        </mxCell>
        <mxCell id="JOiULctxTrwkrGutLJkI-141" style="rounded=0;orthogonalLoop=1;jettySize=auto;html=1;exitX=0.5;exitY=0;exitDx=0;exitDy=0;entryX=0.5;entryY=1;entryDx=0;entryDy=0;endArrow=none;endFill=0;" parent="1" source="JOiULctxTrwkrGutLJkI-140" target="JOiULctxTrwkrGutLJkI-57" edge="1">
          <mxGeometry relative="1" as="geometry" />
        </mxCell>
        <mxCell id="JOiULctxTrwkrGutLJkI-140" value="" style="rounded=0;whiteSpace=wrap;html=1;" parent="1" vertex="1">
          <mxGeometry x="130" y="500" width="30" height="40" as="geometry" />
        </mxCell>
        <mxCell id="JOiULctxTrwkrGutLJkI-143" style="rounded=0;orthogonalLoop=1;jettySize=auto;html=1;exitX=0.5;exitY=0;exitDx=0;exitDy=0;entryX=0.5;entryY=1;entryDx=0;entryDy=0;endArrow=none;endFill=0;" parent="1" source="JOiULctxTrwkrGutLJkI-142" target="JOiULctxTrwkrGutLJkI-62" edge="1">
          <mxGeometry relative="1" as="geometry" />
        </mxCell>
        <mxCell id="JOiULctxTrwkrGutLJkI-142" value="" style="rounded=0;whiteSpace=wrap;html=1;" parent="1" vertex="1">
          <mxGeometry x="225" y="500" width="30" height="40" as="geometry" />
        </mxCell>
        <mxCell id="JOiULctxTrwkrGutLJkI-145" style="rounded=0;orthogonalLoop=1;jettySize=auto;html=1;exitX=0.5;exitY=0;exitDx=0;exitDy=0;entryX=0.5;entryY=1;entryDx=0;entryDy=0;endArrow=none;endFill=0;" parent="1" source="JOiULctxTrwkrGutLJkI-144" target="JOiULctxTrwkrGutLJkI-59" edge="1">
          <mxGeometry relative="1" as="geometry" />
        </mxCell>
        <mxCell id="JOiULctxTrwkrGutLJkI-144" value="" style="rounded=0;whiteSpace=wrap;html=1;" parent="1" vertex="1">
          <mxGeometry x="340" y="500" width="30" height="40" as="geometry" />
        </mxCell>
        <mxCell id="JOiULctxTrwkrGutLJkI-147" style="rounded=0;orthogonalLoop=1;jettySize=auto;html=1;exitX=0.5;exitY=0;exitDx=0;exitDy=0;entryX=0.5;entryY=1;entryDx=0;entryDy=0;endArrow=none;endFill=0;" parent="1" source="JOiULctxTrwkrGutLJkI-146" target="JOiULctxTrwkrGutLJkI-70" edge="1">
          <mxGeometry relative="1" as="geometry" />
        </mxCell>
        <mxCell id="JOiULctxTrwkrGutLJkI-146" value="" style="rounded=0;whiteSpace=wrap;html=1;" parent="1" vertex="1">
          <mxGeometry x="460" y="500" width="30" height="40" as="geometry" />
        </mxCell>
        <mxCell id="JOiULctxTrwkrGutLJkI-149" style="rounded=0;orthogonalLoop=1;jettySize=auto;html=1;exitX=0.5;exitY=0;exitDx=0;exitDy=0;entryX=0.5;entryY=1;entryDx=0;entryDy=0;endArrow=none;endFill=0;" parent="1" source="JOiULctxTrwkrGutLJkI-148" target="JOiULctxTrwkrGutLJkI-71" edge="1">
          <mxGeometry relative="1" as="geometry" />
        </mxCell>
        <mxCell id="JOiULctxTrwkrGutLJkI-148" value="" style="rounded=0;whiteSpace=wrap;html=1;" parent="1" vertex="1">
          <mxGeometry x="555" y="500" width="30" height="40" as="geometry" />
        </mxCell>
        <mxCell id="JOiULctxTrwkrGutLJkI-151" style="rounded=0;orthogonalLoop=1;jettySize=auto;html=1;exitX=0.5;exitY=0;exitDx=0;exitDy=0;entryX=0.5;entryY=1;entryDx=0;entryDy=0;endArrow=none;endFill=0;" parent="1" source="JOiULctxTrwkrGutLJkI-150" target="JOiULctxTrwkrGutLJkI-72" edge="1">
          <mxGeometry relative="1" as="geometry" />
        </mxCell>
        <mxCell id="JOiULctxTrwkrGutLJkI-150" value="" style="rounded=0;whiteSpace=wrap;html=1;" parent="1" vertex="1">
          <mxGeometry x="655" y="500" width="30" height="40" as="geometry" />
        </mxCell>
        <mxCell id="JOiULctxTrwkrGutLJkI-162" style="rounded=0;orthogonalLoop=1;jettySize=auto;html=1;exitX=0.5;exitY=0;exitDx=0;exitDy=0;entryX=0.5;entryY=1;entryDx=0;entryDy=0;endArrow=none;endFill=0;" parent="1" source="JOiULctxTrwkrGutLJkI-152" target="JOiULctxTrwkrGutLJkI-96" edge="1">
          <mxGeometry relative="1" as="geometry" />
        </mxCell>
        <mxCell id="JOiULctxTrwkrGutLJkI-152" value="" style="rounded=0;whiteSpace=wrap;html=1;" parent="1" vertex="1">
          <mxGeometry x="795" y="500" width="30" height="40" as="geometry" />
        </mxCell>
        <mxCell id="JOiULctxTrwkrGutLJkI-163" style="rounded=0;orthogonalLoop=1;jettySize=auto;html=1;exitX=0.5;exitY=0;exitDx=0;exitDy=0;entryX=0.5;entryY=1;entryDx=0;entryDy=0;endArrow=none;endFill=0;" parent="1" source="JOiULctxTrwkrGutLJkI-153" target="JOiULctxTrwkrGutLJkI-97" edge="1">
          <mxGeometry relative="1" as="geometry" />
        </mxCell>
        <mxCell id="JOiULctxTrwkrGutLJkI-153" value="" style="rounded=0;whiteSpace=wrap;html=1;" parent="1" vertex="1">
          <mxGeometry x="875" y="500" width="30" height="40" as="geometry" />
        </mxCell>
        <mxCell id="JOiULctxTrwkrGutLJkI-164" style="rounded=0;orthogonalLoop=1;jettySize=auto;html=1;exitX=0.5;exitY=0;exitDx=0;exitDy=0;entryX=0.5;entryY=1;entryDx=0;entryDy=0;endArrow=none;endFill=0;" parent="1" source="JOiULctxTrwkrGutLJkI-154" target="JOiULctxTrwkrGutLJkI-98" edge="1">
          <mxGeometry relative="1" as="geometry" />
        </mxCell>
        <mxCell id="JOiULctxTrwkrGutLJkI-154" value="" style="rounded=0;whiteSpace=wrap;html=1;" parent="1" vertex="1">
          <mxGeometry x="965" y="500" width="30" height="40" as="geometry" />
        </mxCell>
        <mxCell id="JOiULctxTrwkrGutLJkI-165" style="rounded=0;orthogonalLoop=1;jettySize=auto;html=1;exitX=0.5;exitY=0;exitDx=0;exitDy=0;entryX=0.5;entryY=1;entryDx=0;entryDy=0;endArrow=none;endFill=0;" parent="1" source="JOiULctxTrwkrGutLJkI-155" target="JOiULctxTrwkrGutLJkI-99" edge="1">
          <mxGeometry relative="1" as="geometry" />
        </mxCell>
        <mxCell id="JOiULctxTrwkrGutLJkI-155" value="" style="rounded=0;whiteSpace=wrap;html=1;" parent="1" vertex="1">
          <mxGeometry x="1055" y="500" width="30" height="40" as="geometry" />
        </mxCell>
        <mxCell id="JOiULctxTrwkrGutLJkI-166" style="rounded=0;orthogonalLoop=1;jettySize=auto;html=1;exitX=0.5;exitY=0;exitDx=0;exitDy=0;entryX=0.5;entryY=1;entryDx=0;entryDy=0;endArrow=none;endFill=0;" parent="1" source="JOiULctxTrwkrGutLJkI-156" target="JOiULctxTrwkrGutLJkI-107" edge="1">
          <mxGeometry relative="1" as="geometry" />
        </mxCell>
        <mxCell id="JOiULctxTrwkrGutLJkI-156" value="" style="rounded=0;whiteSpace=wrap;html=1;" parent="1" vertex="1">
          <mxGeometry x="1215" y="500" width="30" height="40" as="geometry" />
        </mxCell>
        <mxCell id="JOiULctxTrwkrGutLJkI-167" style="rounded=0;orthogonalLoop=1;jettySize=auto;html=1;exitX=0.5;exitY=0;exitDx=0;exitDy=0;entryX=0.5;entryY=1;entryDx=0;entryDy=0;endArrow=none;endFill=0;" parent="1" source="JOiULctxTrwkrGutLJkI-157" target="JOiULctxTrwkrGutLJkI-108" edge="1">
          <mxGeometry relative="1" as="geometry" />
        </mxCell>
        <mxCell id="JOiULctxTrwkrGutLJkI-157" value="" style="rounded=0;whiteSpace=wrap;html=1;" parent="1" vertex="1">
          <mxGeometry x="1324" y="500" width="30" height="40" as="geometry" />
        </mxCell>
        <mxCell id="JOiULctxTrwkrGutLJkI-169" style="rounded=0;orthogonalLoop=1;jettySize=auto;html=1;exitX=0.5;exitY=0;exitDx=0;exitDy=0;entryX=0.5;entryY=1;entryDx=0;entryDy=0;endArrow=none;endFill=0;" parent="1" source="JOiULctxTrwkrGutLJkI-159" target="JOiULctxTrwkrGutLJkI-122" edge="1">
          <mxGeometry relative="1" as="geometry" />
        </mxCell>
        <mxCell id="JOiULctxTrwkrGutLJkI-159" value="" style="rounded=0;whiteSpace=wrap;html=1;" parent="1" vertex="1">
          <mxGeometry x="1755" y="500" width="30" height="40" as="geometry" />
        </mxCell>
        <mxCell id="JOiULctxTrwkrGutLJkI-170" style="rounded=0;orthogonalLoop=1;jettySize=auto;html=1;exitX=0.5;exitY=0;exitDx=0;exitDy=0;entryX=0.5;entryY=1;entryDx=0;entryDy=0;endArrow=none;endFill=0;" parent="1" source="JOiULctxTrwkrGutLJkI-160" target="JOiULctxTrwkrGutLJkI-128" edge="1">
          <mxGeometry relative="1" as="geometry" />
        </mxCell>
        <mxCell id="JOiULctxTrwkrGutLJkI-160" value="" style="rounded=0;whiteSpace=wrap;html=1;" parent="1" vertex="1">
          <mxGeometry x="1985" y="500" width="30" height="40" as="geometry" />
        </mxCell>
        <mxCell id="JOiULctxTrwkrGutLJkI-171" style="rounded=0;orthogonalLoop=1;jettySize=auto;html=1;exitX=0.5;exitY=0;exitDx=0;exitDy=0;entryX=0.5;entryY=1;entryDx=0;entryDy=0;endArrow=none;endFill=0;" parent="1" source="JOiULctxTrwkrGutLJkI-161" target="JOiULctxTrwkrGutLJkI-129" edge="1">
          <mxGeometry relative="1" as="geometry" />
        </mxCell>
        <mxCell id="JOiULctxTrwkrGutLJkI-161" value="" style="rounded=0;whiteSpace=wrap;html=1;" parent="1" vertex="1">
          <mxGeometry x="2075" y="500" width="30" height="40" as="geometry" />
        </mxCell>
        <mxCell id="BHGxsHJwMweJ5yTAPPQi-6" style="rounded=0;orthogonalLoop=1;jettySize=auto;html=1;exitX=0.5;exitY=0;exitDx=0;exitDy=0;entryX=0.5;entryY=1;entryDx=0;entryDy=0;endArrow=none;endFill=0;" parent="1" source="BHGxsHJwMweJ5yTAPPQi-3" target="JOiULctxTrwkrGutLJkI-112" edge="1">
          <mxGeometry relative="1" as="geometry" />
        </mxCell>
        <mxCell id="BHGxsHJwMweJ5yTAPPQi-3" value="település" style="ellipse;whiteSpace=wrap;html=1;fontSize=15;" parent="1" vertex="1">
          <mxGeometry x="1390" y="490" width="80" height="60" as="geometry" />
        </mxCell>
        <mxCell id="BHGxsHJwMweJ5yTAPPQi-8" style="rounded=0;orthogonalLoop=1;jettySize=auto;html=1;exitX=0.5;exitY=0;exitDx=0;exitDy=0;entryX=0.5;entryY=1;entryDx=0;entryDy=0;endArrow=none;endFill=0;" parent="1" source="BHGxsHJwMweJ5yTAPPQi-4" target="JOiULctxTrwkrGutLJkI-112" edge="1">
          <mxGeometry relative="1" as="geometry" />
        </mxCell>
        <mxCell id="BHGxsHJwMweJ5yTAPPQi-4" value="utca" style="ellipse;whiteSpace=wrap;html=1;fontSize=15;" parent="1" vertex="1">
          <mxGeometry x="1480" y="490" width="60" height="60" as="geometry" />
        </mxCell>
        <mxCell id="BHGxsHJwMweJ5yTAPPQi-9" style="rounded=0;orthogonalLoop=1;jettySize=auto;html=1;exitX=0.5;exitY=0;exitDx=0;exitDy=0;entryX=0.5;entryY=1;entryDx=0;entryDy=0;endArrow=none;endFill=0;" parent="1" source="BHGxsHJwMweJ5yTAPPQi-5" target="JOiULctxTrwkrGutLJkI-112" edge="1">
          <mxGeometry relative="1" as="geometry" />
        </mxCell>
        <mxCell id="BHGxsHJwMweJ5yTAPPQi-5" value="házszám" style="ellipse;whiteSpace=wrap;html=1;fontSize=15;" parent="1" vertex="1">
          <mxGeometry x="1550" y="490" width="70" height="60" as="geometry" />
        </mxCell>
        <mxCell id="BHGxsHJwMweJ5yTAPPQi-13" style="rounded=0;orthogonalLoop=1;jettySize=auto;html=1;exitX=0.5;exitY=0;exitDx=0;exitDy=0;entryX=0.5;entryY=1;entryDx=0;entryDy=0;endArrow=none;endFill=0;" parent="1" source="BHGxsHJwMweJ5yTAPPQi-10" target="BHGxsHJwMweJ5yTAPPQi-3" edge="1">
          <mxGeometry relative="1" as="geometry" />
        </mxCell>
        <mxCell id="BHGxsHJwMweJ5yTAPPQi-10" value="" style="rounded=0;whiteSpace=wrap;html=1;" parent="1" vertex="1">
          <mxGeometry x="1415" y="580" width="30" height="40" as="geometry" />
        </mxCell>
        <mxCell id="BHGxsHJwMweJ5yTAPPQi-14" style="rounded=0;orthogonalLoop=1;jettySize=auto;html=1;exitX=0.5;exitY=0;exitDx=0;exitDy=0;entryX=0.5;entryY=1;entryDx=0;entryDy=0;endArrow=none;endFill=0;" parent="1" source="BHGxsHJwMweJ5yTAPPQi-11" target="BHGxsHJwMweJ5yTAPPQi-4" edge="1">
          <mxGeometry relative="1" as="geometry" />
        </mxCell>
        <mxCell id="BHGxsHJwMweJ5yTAPPQi-11" value="" style="rounded=0;whiteSpace=wrap;html=1;" parent="1" vertex="1">
          <mxGeometry x="1495" y="580" width="30" height="40" as="geometry" />
        </mxCell>
        <mxCell id="BHGxsHJwMweJ5yTAPPQi-15" style="rounded=0;orthogonalLoop=1;jettySize=auto;html=1;exitX=0.5;exitY=0;exitDx=0;exitDy=0;entryX=0.5;entryY=1;entryDx=0;entryDy=0;endArrow=none;endFill=0;" parent="1" source="BHGxsHJwMweJ5yTAPPQi-12" target="BHGxsHJwMweJ5yTAPPQi-5" edge="1">
          <mxGeometry relative="1" as="geometry" />
        </mxCell>
        <mxCell id="BHGxsHJwMweJ5yTAPPQi-12" value="" style="rounded=0;whiteSpace=wrap;html=1;" parent="1" vertex="1">
          <mxGeometry x="1570" y="580" width="30" height="40" as="geometry" />
        </mxCell>
        <mxCell id="JQOfHqwf0Z415girIw8Z-1" value="&lt;u&gt;A_ID&lt;/u&gt;" style="rhombus;whiteSpace=wrap;html=1;fontSize=15;" parent="1" vertex="1">
          <mxGeometry x="650" y="320" width="70" height="60" as="geometry" />
        </mxCell>
      </root>
    </mxGraphModel>
  </diagram>
</mxfile>
